<svg width="152" height="37" viewBox="0 0 152 37" fill="none" xmlns="http://www.w3.org/2000/svg">
<path d="M141.547 31.7277C139.28 31.7277 137.265 31.2188 135.501 30.2011C133.766 29.1558 132.409 27.753 131.429 25.9926C130.45 24.2047 129.96 22.2105 129.96 20.01C129.96 17.7544 130.45 15.7602 131.429 14.0273C132.437 12.2944 133.78 10.9329 135.459 9.94262C137.139 8.92488 139.042 8.41602 141.169 8.41602C142.876 8.41602 144.401 8.70483 145.745 9.28247C147.088 9.8601 148.222 10.6578 149.145 11.6755C150.069 12.6658 150.768 13.8073 151.244 15.1001C151.748 16.3929 152 17.7682 152 19.226C152 19.5836 151.986 19.955 151.958 20.34C151.93 20.7251 151.874 21.0827 151.79 21.4128H133.696V17.6994H149.103L146.836 19.3911C147.116 18.0433 147.018 16.8467 146.542 15.8015C146.095 14.7287 145.395 13.8898 144.443 13.2847C143.52 12.652 142.428 12.3357 141.169 12.3357C139.909 12.3357 138.79 12.652 137.81 13.2847C136.831 13.8898 136.075 14.77 135.543 15.9253C135.012 17.053 134.802 18.4283 134.914 20.0512C134.774 21.5641 134.984 22.8844 135.543 24.0121C136.131 25.1399 136.943 26.0201 137.978 26.6528C139.042 27.2854 140.245 27.6017 141.589 27.6017C142.96 27.6017 144.121 27.2992 145.073 26.694C146.053 26.0889 146.822 25.3049 147.382 24.3422L151.244 26.1989C150.796 27.2442 150.097 28.1931 149.145 29.0458C148.222 29.871 147.102 30.5312 145.787 31.0263C144.499 31.4939 143.086 31.7277 141.547 31.7277Z" fill="#DEFA2C"/>
<path d="M116.213 31.7277C113.946 31.7277 111.931 31.2188 110.167 30.2011C108.432 29.1558 107.047 27.753 106.011 25.9926C105.004 24.2322 104.5 22.238 104.5 20.01C104.5 17.8095 105.004 15.829 106.011 14.0686C107.019 12.3082 108.404 10.9329 110.167 9.94262C111.931 8.92488 113.946 8.41602 116.213 8.41602C117.752 8.41602 119.193 8.69108 120.537 9.24121C121.88 9.76383 123.042 10.4928 124.021 11.428C125.029 12.3632 125.77 13.4497 126.246 14.6875L122.09 16.5854C121.614 15.4301 120.845 14.5087 119.781 13.821C118.745 13.1059 117.556 12.7483 116.213 12.7483C114.925 12.7483 113.764 13.0646 112.728 13.6972C111.721 14.3024 110.923 15.1688 110.335 16.2966C109.748 17.3969 109.454 18.6484 109.454 20.0512C109.454 21.4541 109.748 22.7193 110.335 23.8471C110.923 24.9474 111.721 25.8138 112.728 26.4465C113.764 27.0791 114.925 27.3954 116.213 27.3954C117.584 27.3954 118.773 27.0516 119.781 26.3639C120.817 25.6488 121.586 24.6998 122.09 23.517L126.246 25.4562C125.798 26.639 125.071 27.7118 124.063 28.6745C123.083 29.6097 121.922 30.3524 120.579 30.9025C119.235 31.4526 117.78 31.7277 116.213 31.7277Z" fill="#DEFA2C"/>
<path d="M95.1338 31.2335V8.91208H99.8776V31.2335H95.1338ZM95.1338 5.85887V0.495117H99.8776V5.85887H95.1338Z" fill="#DEFA2C"/>
<g clip-path="url(#clip0_8791_985)">
<rect width="23.9691" height="23.9691" rx="10.9354" transform="matrix(0.713206 0.700954 -0.713206 0.700954 73.9219 3.39746)" fill="#DEFA2C"/>
<path d="M81.0447 15.0718C81.0447 15.0718 82.5773 14.5959 83.1703 16.0303C83.1703 16.0303 85.4435 18.5114 85.6912 20.2997C85.6912 20.2997 85.7853 20.8457 85.2448 21.1405C84.8411 21.3566 84.292 21.8944 83.93 22.3297C83.93 22.3297 82.7107 23.8371 80.5005 23.8371C80.5005 23.8371 80.2075 23.8062 79.5884 25.2152C79.2741 25.9344 78.4154 27.0177 77.7855 27.8508C77.4032 28.354 76.8875 29.6917 76.7483 30.0921C76.4422 30.9558 76.3519 33.0975 76.6732 33.706C76.6732 33.706 77.6854 36.0592 77.9592 37.103C77.9772 37.1662 78.4475 38.5343 78.2105 40.5065C78.1878 40.6983 78.0568 41.4475 78.0069 41.8909C77.9341 42.5254 77.958 43.8385 78.2058 44.4376C78.4428 45.0109 79.1548 45.5412 79.3537 47.0334C79.5547 48.4905 79.1274 50.597 79.2929 51.8634C79.3858 52.5715 79.7108 53.5838 81.0969 54.2346C81.0969 54.2346 82.4129 54.5481 81.8221 54.9857C81.8221 54.9857 80.3051 55.042 79.4155 54.7201C79.4155 54.7201 77.8995 54.8383 77.7018 54.2859C77.7018 54.2859 77.7055 53.8529 77.8675 53.5018C77.8675 53.5018 77.534 51.3343 76.4481 49.9089C75.6645 48.8801 75.4947 48.453 75.8931 44.7653C75.8931 44.7653 74.6558 43.9963 73.9242 41.2203C73.7098 40.4035 73.3793 38.9956 73.1144 37.9493C73.1144 37.9493 71.2145 41.8675 71.377 43.8371C71.377 43.8371 72.2815 45.856 72.4012 46.6239C72.5025 47.2804 72.4815 48.3394 72.2011 49.2676C71.9111 50.2272 72.5328 52.4589 72.7305 53.215C72.7305 53.215 73.2217 54.52 72.2697 54.4897C72.2697 54.4897 70.6223 54.2859 70.0941 54.6651C70.0941 54.6651 68.2152 54.8923 67.8227 54.7215C67.8227 54.7215 67.1957 54.4908 68.2508 54.0263C68.2508 54.0263 69.3725 53.9971 69.7648 53.3017C69.7648 53.3017 70.2602 52.7201 70.4233 52.6311C70.4233 52.6311 69.7333 50.9353 69.0665 48.4822C68.8116 47.5378 68.6407 45.3597 68.4847 44.3978C68.3859 43.7987 68.7092 42.3906 68.5138 41.8067C68.0005 40.2595 67.2081 39.0821 68.4452 35.364C68.4452 35.364 69.1175 33.8033 69.5004 32.9249C70.022 31.7266 70.0601 29.5562 69.5004 27.7872C69.5004 27.7872 68.3822 26.2185 68.3161 24.7122C68.3161 24.7122 68.4495 23.7274 66.8324 23.755C66.8324 23.755 65.6154 24.017 63.6058 22.1838L62.4192 21.3149C62.4192 21.3149 61.791 21.0095 62.4483 19.3112C62.4483 19.3112 63.5884 17.1789 64.1982 16.555L64.6251 15.6807C64.6251 15.6807 65.0043 14.7093 66.6358 15.132C66.6358 15.132 67.5736 15.263 67.4247 15.812C67.4247 15.812 67.6551 17.5364 67.0968 17.3206C67.0968 17.3206 66.8312 17.1778 66.7675 16.8279C66.7675 16.8279 65.9434 16.7887 65.7607 16.5535C65.7607 16.5535 65.3326 17.8729 65.1206 18.1059C65.1206 18.1059 65.3324 19.9895 65.151 20.3692C65.151 20.3692 66.865 19.498 67.9539 21.0235C67.9539 21.0235 70.0623 20.3996 70.9024 21.5161C70.9024 21.5161 72.3366 22.5794 72.5635 21.2985L72.5326 20.5278C72.5326 20.5278 72.3325 20.0636 72.2854 19.7296C72.2854 19.7296 71.9228 19.9474 71.8061 18.9877C71.8061 18.9877 71.5935 18.3634 72.0376 18.4651C72.0376 18.4651 71.2953 16.5656 73.3213 16.043C73.3213 16.043 75.9559 15.4508 75.7249 18.2777C75.7249 18.2777 76.6812 18.0576 75.7249 19.699C75.7249 19.699 75.4409 19.6358 75.4943 19.7605C75.5284 19.8336 75.5796 20.6174 75.5796 20.6174C75.5796 20.6174 75.6439 21.8509 76.7312 21.6466C76.7312 21.6466 78.6734 20.3095 79.6128 21.0656C79.6128 21.0656 80.8488 19.5266 82.5136 20.3418C82.5136 20.3418 83.0398 20.4265 83.19 19.9789C83.19 19.9789 82.1504 19.1503 82.4005 16.887C82.4005 16.887 82.3196 16.0887 81.9527 16.2754L81.5884 16.3438C81.5884 16.3438 81.5088 16.9294 80.4369 16.8733C80.4369 16.8733 80.4749 17.0759 80.4238 17.1178C80.256 17.2583 79.6916 17.2291 79.4998 17.1178C79.0604 16.865 79.015 15.6186 80.0272 15.3319L81.0447 15.0718Z" fill="#151718"/>
</g>
<path d="M33.0947 31.2335V0H37.8386V13.2856L37.0829 12.708C37.6426 11.3051 38.5382 10.2461 39.7697 9.53097C41.0011 8.7883 42.4285 8.41696 44.0517 8.41696C45.731 8.41696 47.2143 8.77454 48.5017 9.48971C49.7891 10.2049 50.7966 11.1951 51.5243 12.4604C52.252 13.7257 52.6158 15.1698 52.6158 16.7927V31.2335H47.914V18.0717C47.914 16.9439 47.6901 15.995 47.2423 15.2248C46.8225 14.4271 46.2347 13.822 45.4791 13.4094C44.7234 12.9693 43.8558 12.7492 42.8763 12.7492C41.9247 12.7492 41.0571 12.9693 40.2734 13.4094C39.5178 13.822 38.9161 14.4271 38.4683 15.2248C38.0485 16.0225 37.8386 16.9715 37.8386 18.0717V31.2335H33.0947Z" fill="#DEFA2C"/>
<path d="M15.4909 31.7286C13.2799 31.7286 11.2229 31.3298 9.31974 30.5321C7.4446 29.7344 5.80735 28.6342 4.40799 27.2313C3.03661 25.801 1.9591 24.1231 1.17546 22.1977C0.391821 20.2722 0 18.1542 0 15.8437C0 13.5607 0.377827 11.4564 1.13348 9.53097C1.91712 7.57802 3.00863 5.90013 4.40799 4.4973C5.80735 3.06696 7.4446 1.96671 9.31974 1.19653C11.1949 0.398844 13.2519 0 15.4909 0C17.7019 0 19.675 0.371337 21.4102 1.11401C23.1734 1.85668 24.6567 2.83316 25.8602 4.04344C27.0636 5.22622 27.9312 6.51902 28.463 7.92185L24.013 9.98483C23.3413 8.33444 22.2638 7.00038 20.7805 5.98264C19.3252 4.9374 17.562 4.41478 15.4909 4.41478C13.4199 4.41478 11.5867 4.89614 9.99143 5.85887C8.39616 6.82159 7.15073 8.15565 6.25514 9.86105C5.38754 11.5664 4.95374 13.5607 4.95374 15.8437C4.95374 18.1267 5.38754 20.1347 6.25514 21.8676C7.15073 23.573 8.39616 24.9071 9.99143 25.8698C11.5867 26.805 13.4199 27.2726 15.4909 27.2726C17.562 27.2726 19.3252 26.7637 20.7805 25.746C22.2638 24.7283 23.3413 23.3942 24.013 21.7438L28.463 23.8068C27.9312 25.1821 27.0636 26.4749 25.8602 27.6852C24.6567 28.8955 23.1734 29.872 21.4102 30.6146C19.675 31.3573 17.7019 31.7286 15.4909 31.7286Z" fill="#DEFA2C"/>
<defs>
<clipPath id="clip0_8791_985">
<rect width="23.9691" height="23.9691" rx="10.9354" transform="matrix(0.713206 0.700954 -0.713206 0.700954 73.9219 3.39746)" fill="white"/>
</clipPath>
</defs>
</svg>
