<svg width="295" height="73" viewBox="0 0 295 73" fill="none" xmlns="http://www.w3.org/2000/svg">
<path d="M274.713 62.3247C270.313 62.3247 266.402 61.3251 262.98 59.3259C259.613 57.2726 256.978 54.517 255.077 51.0589C253.176 47.5468 252.226 43.6295 252.226 39.3069C252.226 34.8762 253.176 30.9589 255.077 27.5548C257.033 24.1508 259.64 21.4762 262.899 19.531C266.158 17.5318 269.852 16.5322 273.98 16.5322C277.293 16.5322 280.253 17.0996 282.861 18.2343C285.468 19.3689 287.668 20.9359 289.46 22.9351C291.253 24.8802 292.611 27.1226 293.534 29.6621C294.512 32.2016 295 34.9032 295 37.767C295 38.4694 294.973 39.1988 294.919 39.9553C294.865 40.7117 294.756 41.4141 294.593 42.0625H259.477V34.7682H289.379L284.979 38.0912C285.522 35.4436 285.332 33.0932 284.409 31.0399C283.54 28.9327 282.182 27.2847 280.335 26.096C278.542 24.8532 276.424 24.2318 273.98 24.2318C271.535 24.2318 269.363 24.8532 267.462 26.096C265.56 27.2847 264.094 29.0137 263.062 31.2831C262.03 33.4984 261.622 36.2 261.84 39.3879C261.568 42.3597 261.976 44.9533 263.062 47.1686C264.203 49.3839 265.778 51.113 267.788 52.3557C269.852 53.5984 272.187 54.2198 274.794 54.2198C277.456 54.2198 279.71 53.6255 281.557 52.4367C283.458 51.248 284.952 49.7081 286.038 47.817L293.534 51.4642C292.665 53.5174 291.307 55.3815 289.46 57.0565C287.668 58.6775 285.495 59.9743 282.942 60.9468C280.443 61.8654 277.7 62.3247 274.713 62.3247Z" fill="#DEFA2C"/>
<path d="M225.545 62.3247C221.146 62.3247 217.235 61.3251 213.813 59.3259C210.445 57.2726 207.756 54.517 205.747 51.0589C203.791 47.6008 202.813 43.6835 202.813 39.3069C202.813 34.9843 203.791 31.094 205.747 27.6359C207.702 24.1778 210.391 21.4762 213.813 19.531C217.235 17.5318 221.146 16.5322 225.545 16.5322C228.533 16.5322 231.33 17.0725 233.937 18.1532C236.545 19.1798 238.799 20.6117 240.7 22.4488C242.655 24.2859 244.095 26.4202 245.018 28.8516L236.952 32.5798C236.029 30.3105 234.535 28.5004 232.471 27.1496C230.461 25.7448 228.153 25.0423 225.545 25.0423C223.047 25.0423 220.793 25.6637 218.783 26.9064C216.827 28.0952 215.279 29.7972 214.139 32.0125C212.998 34.1738 212.428 36.6323 212.428 39.3879C212.428 42.1436 212.998 44.6291 214.139 46.8444C215.279 49.0057 216.827 50.7077 218.783 51.9505C220.793 53.1932 223.047 53.8146 225.545 53.8146C228.207 53.8146 230.515 53.1392 232.471 51.7884C234.48 50.3835 235.974 48.5194 236.952 46.196L245.018 50.0053C244.149 52.3287 242.737 54.4359 240.781 56.3271C238.88 58.1642 236.626 59.6231 234.019 60.7037C231.412 61.7843 228.587 62.3247 225.545 62.3247Z" fill="#DEFA2C"/>
<path d="M184.635 61.3529V17.5056H193.842V61.3529H184.635ZM184.635 11.508V0.97168H193.842V11.508H184.635Z" fill="#DEFA2C"/>
<g clip-path="url(#clip0_8791_952)">
<rect width="46.7975" height="46.7975" rx="10.9354" transform="matrix(0.708964 0.705245 -0.708964 0.705245 143.467 6.67383)" fill="#DEFA2C"/>
<path d="M157.291 29.6067C157.291 29.6067 160.265 28.6719 161.416 31.4896C161.416 31.4896 165.828 36.3634 166.309 39.8761C166.309 39.8761 166.491 40.9487 165.442 41.5279C164.659 41.9523 163.593 43.0086 162.891 43.8638C162.891 43.8638 160.524 46.8249 156.235 46.8249C156.235 46.8249 155.666 46.7641 154.464 49.532C153.855 50.9448 152.188 53.0726 150.966 54.7093C150.224 55.6978 149.223 58.3255 148.952 59.1119C148.358 60.8086 148.183 65.0157 148.807 66.211C148.807 66.211 150.771 70.8334 151.303 72.8839C151.337 73.0081 152.25 75.6955 151.79 79.5695C151.746 79.9463 151.492 81.418 151.395 82.289C151.254 83.5353 151.3 86.1147 151.781 87.2916C152.241 88.4178 153.623 89.4595 154.009 92.3908C154.399 95.253 153.57 99.3909 153.891 101.879C154.071 103.269 154.702 105.258 157.392 106.536C157.392 106.536 159.946 107.152 158.8 108.012C158.8 108.012 155.856 108.123 154.129 107.49C154.129 107.49 151.187 107.722 150.803 106.637C150.803 106.637 150.81 105.787 151.125 105.097C151.125 105.097 150.477 100.839 148.37 98.0393C146.849 96.0183 146.52 95.1793 147.293 87.9353C147.293 87.9353 144.891 86.4247 143.471 80.9717C143.055 79.3672 142.414 76.6016 141.9 74.5462C141.9 74.5462 138.213 82.243 138.528 86.1121C138.528 86.1121 140.283 90.0779 140.516 91.5862C140.712 92.8759 140.672 94.9562 140.127 96.7794C139.564 98.6645 140.771 103.048 141.155 104.534C141.155 104.534 142.108 107.097 140.261 107.037C140.261 107.037 137.063 106.637 136.038 107.382C136.038 107.382 132.391 107.828 131.63 107.493C131.63 107.493 130.413 107.04 132.461 106.127C132.461 106.127 134.638 106.07 135.399 104.704C135.399 104.704 136.36 103.561 136.677 103.387C136.677 103.387 135.338 100.055 134.044 95.2367C133.549 93.3815 133.217 89.103 132.914 87.2134C132.723 86.0366 133.35 83.2706 132.971 82.1236C131.975 79.0844 130.437 76.7715 132.838 69.4678C132.838 69.4678 134.143 66.4021 134.886 64.6767C135.898 62.3226 135.972 58.0593 134.886 54.5844C134.886 54.5844 132.716 51.5028 132.587 48.5439C132.587 48.5439 132.846 46.6093 129.708 46.6637C129.708 46.6637 127.346 47.1783 123.446 43.5772L121.143 41.8703C121.143 41.8703 119.924 41.2704 121.199 37.9344C121.199 37.9344 123.412 33.7458 124.595 32.5203L125.424 30.8028C125.424 30.8028 126.16 28.8947 129.326 29.7249C129.326 29.7249 131.146 29.9824 130.857 31.0607C130.857 31.0607 131.304 34.4481 130.221 34.0241C130.221 34.0241 129.705 33.7436 129.582 33.0564C129.582 33.0564 127.982 32.9794 127.628 32.5173C127.628 32.5173 126.797 35.1092 126.386 35.5668C126.386 35.5668 126.797 39.2667 126.444 40.0128C126.444 40.0128 129.771 38.3014 131.884 41.298C131.884 41.298 135.976 40.0724 137.607 42.2656C137.607 42.2656 140.39 44.3542 140.831 41.8382L140.771 40.3243C140.771 40.3243 140.382 39.4125 140.291 38.7563C140.291 38.7563 139.587 39.1841 139.361 37.299C139.361 37.299 138.948 36.0727 139.81 36.2724C139.81 36.2724 138.369 32.5411 142.301 31.5145C142.301 31.5145 147.415 30.3513 146.966 35.9043C146.966 35.9043 148.822 35.472 146.966 38.6963C146.966 38.6963 146.415 38.5721 146.519 38.8171C146.585 38.9606 146.684 40.5002 146.684 40.5002C146.684 40.5002 146.809 42.9233 148.919 42.522C148.919 42.522 152.689 39.8954 154.512 41.3807C154.512 41.3807 156.911 38.3576 160.142 39.9588C160.142 39.9588 161.163 40.1253 161.455 39.246C161.455 39.246 159.437 37.6184 159.922 33.1723C159.922 33.1723 159.765 31.6044 159.053 31.971L158.346 32.1054C158.346 32.1054 158.192 33.2558 156.111 33.1455C156.111 33.1455 156.185 33.5435 156.086 33.6258C155.76 33.9018 154.665 33.8444 154.293 33.6258C153.44 33.1293 153.352 30.6809 155.316 30.1176L157.291 29.6067Z" fill="#151718"/>
</g>
<path d="M64.2305 61.3538V0H73.4373V26.0976L71.9707 24.963C73.057 22.2073 74.7952 20.1271 77.1852 18.7222C79.5751 17.2633 82.3453 16.5339 85.4957 16.5339C88.7548 16.5339 91.6336 17.2363 94.1322 18.6412C96.6308 20.046 98.5862 21.9912 99.9984 24.4767C101.411 26.9622 102.117 29.7989 102.117 32.9868V61.3538H92.9915V35.4993C92.9915 33.284 92.557 31.4198 91.6879 29.9069C90.8731 28.34 89.7325 27.1513 88.2659 26.3408C86.7993 25.4763 85.1155 25.044 83.2144 25.044C81.3676 25.044 79.6838 25.4763 78.1629 26.3408C76.6963 27.1513 75.5285 28.34 74.6594 29.9069C73.8446 31.4739 73.4373 33.338 73.4373 35.4993V61.3538H64.2305Z" fill="#DEFA2C"/>
<path d="M30.0647 62.3264C25.7736 62.3264 21.7813 61.5429 18.0877 59.9759C14.4484 58.409 11.2709 56.2477 8.55498 53.4921C5.89343 50.6824 3.80221 47.3864 2.28133 43.6041C0.760443 39.8219 0 35.6614 0 31.1227C0 26.638 0.733284 22.5045 2.19985 18.7222C3.72074 14.8859 5.83912 11.5899 8.55498 8.8343C11.2709 6.02461 14.4484 3.86332 18.0877 2.35041C21.7269 0.783471 25.7193 0 30.0647 0C34.3557 0 38.1851 0.729438 41.5528 2.18831C44.9748 3.64719 47.8536 5.56534 50.1892 7.94276C52.5249 10.2661 54.2087 12.8057 55.2407 15.5613L46.6043 19.6138C45.3007 16.3718 43.2095 13.7512 40.3306 11.752C37.5061 9.69881 34.0841 8.6722 30.0647 8.6722C26.0452 8.6722 22.4874 9.61776 19.3913 11.5089C16.2952 13.4 13.8781 16.0206 12.1399 19.3706C10.4561 22.7206 9.61417 26.638 9.61417 31.1227C9.61417 35.6073 10.4561 39.5517 12.1399 42.9557C13.8781 46.3058 16.2952 48.9263 19.3913 50.8175C22.4874 52.6546 26.0452 53.5731 30.0647 53.5731C34.0841 53.5731 37.5061 52.5735 40.3306 50.5743C43.2095 48.5751 45.3007 45.9545 46.6043 42.7126L55.2407 46.765C54.2087 49.4666 52.5249 52.0062 50.1892 54.3836C47.8536 56.761 44.9748 58.6792 41.5528 60.138C38.1851 61.5969 34.3557 62.3264 30.0647 62.3264Z" fill="#DEFA2C"/>
<defs>
<clipPath id="clip0_8791_952">
<rect width="46.7975" height="46.7975" rx="10.9354" transform="matrix(0.708964 0.705245 -0.708964 0.705245 143.467 6.67383)" fill="white"/>
</clipPath>
</defs>
</svg>
