<svg width="30" height="51" viewBox="0 0 30 51" fill="none" xmlns="http://www.w3.org/2000/svg">
<path d="M11.924 1.88974C12.1983 2.95082 12.4138 4.0119 12.5706 5.11156C12.551 4.97651 12.5313 4.86076 12.5117 4.72571C12.8056 6.86715 12.8449 9.06646 12.551 11.2079C12.5706 11.0728 12.5901 10.9571 12.6097 10.822C12.3746 12.5583 11.924 14.2561 11.2382 15.8573C11.297 15.7416 11.3363 15.6258 11.395 15.5101C11.062 16.2818 10.6897 17.0341 10.2391 17.748C10.0236 18.1145 9.76885 18.4811 9.51414 18.8283C9.39659 18.9827 9.27907 19.137 9.16152 19.2913C9.475 18.8862 9.22028 19.2142 9.14191 19.3106C9.06354 19.4071 8.98513 19.5035 8.90676 19.5807C8.35817 20.2367 7.73125 20.8347 7.0847 21.3942C6.92796 21.5292 6.75163 21.6643 6.59489 21.7993C6.49693 21.8765 6.16384 22.1273 6.57528 21.8186C6.47732 21.8765 6.39897 21.9536 6.301 22.0308C5.92875 22.3009 5.53692 22.5517 5.14507 22.8025C4.40056 23.2462 3.656 23.6321 2.85271 23.96C2.97027 23.9022 3.08779 23.8636 3.20534 23.8057C2.63716 24.0372 2.06904 24.2687 1.50085 24.5195C1.10901 24.6931 0.736769 24.8475 0.442882 25.1369C-0.223261 25.7542 -0.105764 26.8153 0.579972 27.3362C0.932636 27.6063 1.40291 27.6834 1.81435 27.7992C2.51968 28.0114 3.22495 28.2622 3.91069 28.5516C3.79313 28.4937 3.67562 28.4551 3.55806 28.3972C5.41934 29.1882 7.22183 30.1721 8.82841 31.3683C8.86759 31.4068 8.9068 31.4261 8.94598 31.4647C8.61291 31.2139 8.75004 31.3297 8.82841 31.3683C8.92637 31.4454 9.00472 31.5033 9.10268 31.5805C9.27902 31.7155 9.45537 31.8699 9.61211 32.0049C9.90599 32.275 10.1999 32.5451 10.4742 32.8537C10.6113 32.9888 10.7289 33.1431 10.866 33.2975C10.9248 33.3746 10.9835 33.4518 11.0423 33.529C11.1011 33.6061 11.1991 33.7412 10.9248 33.3939C10.964 33.4518 11.0031 33.4904 11.0423 33.5483C11.2774 33.857 11.5126 34.1849 11.7085 34.5322C12.2179 35.3232 12.6293 36.172 13.0212 37.0402C12.9624 36.9244 12.9232 36.8087 12.8645 36.6929C14.2751 40.0112 14.9216 43.5802 15.5486 47.1107C15.7053 48.056 15.8817 49.0013 16.058 49.9467C16.1168 50.2746 16.4498 50.6605 16.7241 50.8148C17.018 50.9692 17.3315 51.027 17.6646 50.9884C18.3895 50.892 18.9185 50.2939 18.9381 49.5608C18.9969 47.9596 19.0557 46.3583 19.1144 44.7378C19.1732 43.1944 19.1732 41.6317 19.3887 40.0883C19.3691 40.2234 19.3496 40.3391 19.33 40.4742C19.5259 39.143 19.8197 37.8118 20.1724 36.5193C20.3487 35.8826 20.5446 35.246 20.7406 34.6094C20.9169 34.0885 21.0737 33.5483 21.2892 33.0274C21.2304 33.1431 21.1912 33.2589 21.1324 33.3746C21.4067 32.7573 21.7594 32.1785 22.1709 31.6383C22.2297 31.5612 22.2884 31.484 22.3472 31.3875C22.4843 31.2139 22.0925 31.6962 22.308 31.4261C22.4451 31.2525 22.5823 31.0982 22.7194 30.9245C22.9741 30.6158 23.2484 30.3265 23.5227 30.0371C24.1105 29.439 24.7375 28.8603 25.384 28.3008C25.5408 28.1657 25.6975 28.05 25.8542 27.9149C25.9326 27.8571 26.011 27.7992 26.0894 27.722C26.1286 27.6834 26.1677 27.6448 26.2265 27.6256C26.1677 27.6641 25.9326 27.8571 26.109 27.7027C26.4225 27.4712 26.7555 27.2397 27.069 27.0082C27.7155 26.5838 28.3817 26.1786 29.1066 25.8893C28.989 25.9471 28.8715 25.9857 28.754 26.0436C28.8127 26.0243 28.8715 26.005 28.9303 25.9664C29.2829 25.8314 29.616 25.6385 29.8119 25.3105C29.9687 25.0211 30.0274 24.7125 29.9882 24.3845C29.8903 23.6707 29.2829 23.1305 28.5384 23.1305C28.2054 23.1305 27.8723 23.1112 27.5588 23.0726C27.6959 23.0919 27.8135 23.1112 27.9507 23.1305C27.3041 23.034 26.6575 22.8604 26.0501 22.6096C26.1677 22.6675 26.2853 22.7061 26.4029 22.7639C26.0306 22.6096 25.6779 22.436 25.3448 22.2237C25.1685 22.1273 25.0118 22.0115 24.8355 21.9151C24.7571 21.8572 24.6591 21.7993 24.5807 21.7414C24.5415 21.7221 24.5023 21.6836 24.4631 21.6643C24.4435 21.645 24.424 21.6257 24.4044 21.6257C24.2673 21.5099 24.6003 21.78 24.5807 21.7607C23.9146 21.2205 23.2876 20.6418 22.6998 20.0051C22.5627 19.8315 22.406 19.6772 22.2688 19.5035C22.2101 19.4264 22.1317 19.3299 22.0729 19.2527C21.9162 19.0598 22.2297 19.4457 22.1709 19.3685C22.1317 19.3106 22.0925 19.272 22.0533 19.2142C21.7594 18.8476 21.5047 18.4618 21.2304 18.0759C20.6818 17.2656 20.1921 16.4168 19.7414 15.5486C19.2124 14.5454 18.7226 13.5037 18.272 12.4619C18.3308 12.5776 18.3699 12.6934 18.4287 12.8092C17.116 9.74169 16.0972 6.53918 15.2547 3.29808C15.0588 2.54569 14.8825 1.81259 14.7061 1.06019C14.5298 0.327089 13.6285 -0.174523 12.9036 0.0569837C12.1591 0.365659 11.7281 1.09876 11.924 1.88974C12.3354 3.64534 12.7861 5.40094 13.3151 7.13724C13.9224 9.16292 14.6278 11.1886 15.4311 13.1564C16.2932 15.2207 17.2532 17.2656 18.4679 19.1563C19.5455 20.854 20.8386 22.5131 22.4255 23.7671C23.1896 24.3652 23.993 24.9246 24.8942 25.3105C25.8934 25.7349 26.8731 26.005 27.9703 26.1015C28.1858 26.1208 28.4012 26.1208 28.5972 26.1208C28.46 25.1755 28.3425 24.2301 28.2053 23.2848C26.5987 23.9022 25.2077 24.8668 23.8754 25.9279C22.5431 26.9889 21.2892 28.185 20.2312 29.5162C19.7023 30.1721 19.2124 30.8281 18.8206 31.5805C18.3699 32.4679 18.0761 33.4325 17.7822 34.3778C17.0769 36.6736 16.5086 39.008 16.3323 41.4002C16.2343 42.7507 16.2148 44.1204 16.1756 45.4709C16.1364 46.8599 16.0776 48.2296 16.0384 49.6187C16.9984 49.4836 17.9585 49.3679 18.9185 49.2328C18.2132 45.3937 17.6842 41.4967 16.4302 37.7926C15.7837 35.9212 14.9804 34.0499 13.8049 32.4293C13.2171 31.5998 12.551 30.8281 11.8065 30.1335C10.9444 29.3619 9.98434 28.6674 9.00472 28.05C7.92714 27.3555 6.79081 26.7381 5.61527 26.2172C4.94912 25.9086 4.26339 25.6385 3.55806 25.3877C2.98988 25.1947 2.42166 25.0404 1.85348 24.8668C1.97104 24.9247 2.08865 24.9632 2.2062 25.0211C2.38253 25.1947 2.5392 25.3491 2.71553 25.5227C2.77431 25.6385 2.81355 25.7542 2.87233 25.87C2.89192 26.005 2.91147 26.1208 2.93106 26.2558C2.91147 26.3909 2.89192 26.5066 2.87233 26.6417C2.81355 26.7574 2.77431 26.8732 2.71553 26.9889C2.59797 27.1626 2.44127 27.3748 2.26494 27.4519C2.30413 27.4326 2.32372 27.4134 2.3629 27.3941C2.46087 27.3362 2.55883 27.2976 2.65679 27.2397C2.93108 27.1047 3.22495 26.9889 3.51884 26.8732C3.40128 26.931 3.28377 26.9696 3.16621 27.0275C3.9695 26.6995 4.79235 26.3716 5.57604 25.9664C6.4773 25.5034 7.31977 24.9632 8.12306 24.3652C9.8276 23.0726 11.2971 21.5485 12.453 19.7736C14.6865 16.3975 15.6662 12.3075 15.6858 8.31406C15.6858 5.92183 15.3527 3.51029 14.7649 1.19523C14.569 0.462125 13.7069 -0.0587554 12.9624 0.192043C12.1787 0.365673 11.7085 1.09876 11.924 1.88974Z" fill="#DEFA2C"/>
</svg>
